<?xml version="1.0" encoding="UTF-8" standalone="no"?>
<!DOCTYPE svg PUBLIC "-//W3C//DTD SVG 1.1//EN" "http://www.w3.org/Graphics/SVG/1.1/DTD/svg11.dtd">
<svg width="850.39" height="595.28" viewBox="0.00 0.00 14173.00 9921.00" xmlns="http://www.w3.org/2000/svg" xmlns:xlink="http://www.w3.org/1999/xlink">
<g stroke-linecap="round" id="聖誕主題_的複製">
<path d="M3248.89,453.63 L3226.98,527.55 L3128.43,534.39 L3192.76,591.88 L3176.34,693.17 L3244.78,638.42 L3320.06,693.17 L3299.53,604.20 L3366.60,546.71 L3281.74,538.50 L3248.89,453.63 Z" fill="none" stroke="rgb(240, 238, 122)" stroke-width="9.94" stroke-opacity="1.00" stroke-linejoin="miter"/>
<path d="M3247.52,715.53 C3244.16,727.03 3235.55,756.10 3230.29,773.66 C3222.58,796.77 3212.86,821.62 3206.65,835.41 C3202.05,845.20 3185.80,876.44 3178.16,890.73 C3170.96,903.54 3155.79,929.94 3147.83,943.54 C3143.55,950.44 3134.79,964.15 3130.31,970.96 C3118.67,987.71 3099.35,1012.77 3087.53,1027.06 C3067.83,1049.38 3047.45,1072.47 3046.76,1073.24 C3077.34,1072.44 3142.79,1070.71 3177.66,1069.80 C3180.35,1069.73 3184.26,1069.62 3185.46,1069.59 C3179.95,1079.33 3165.80,1104.12 3157.17,1119.16 C3148.37,1133.69 3131.47,1160.96 3123.38,1173.70 C3105.43,1201.05 3070.82,1253.64 3054.17,1278.88 C3045.33,1292.01 3027.06,1318.36 3017.63,1331.58 C3007.63,1345.01 2985.62,1373.11 2974.34,1387.22 C2955.16,1410.22 2933.88,1435.74 2931.78,1438.25" fill="none" stroke="rgb(33, 114, 29)" stroke-width="26.50" stroke-opacity="1.00" stroke-linejoin="miter"/>
<path d="M2937.26,1438.25 C2967.43,1437.09 3033.25,1434.56 3068.89,1433.19 C3071.75,1433.08 3077.11,1432.88 3079.61,1432.78 C3075.10,1442.19 3061.47,1470.67 3055.89,1481.28 C3051.37,1489.43 3041.33,1506.24 3035.81,1514.91 C3027.61,1527.18 3009.27,1552.79 2999.13,1566.12 C2979.58,1591.16 2939.36,1642.96 2918.69,1669.70 C2910.58,1680.31 2893.55,1702.66 2884.62,1714.40 C2879.88,1720.72 2870.84,1730.22 2864.25,1735.74 C2853.61,1744.62 2812.24,1771.65 2811.33,1772.24 C2834.27,1771.81 2888.84,1770.77 2920.47,1770.17 C2960.77,1769.41 3041.91,1767.87 3082.74,1767.10 C3114.91,1766.49 3170.57,1765.43 3194.06,1764.99 C3194.84,1764.97 3195.63,1764.96 3196.42,1764.94 C3196.47,1790.62 3196.60,1855.87 3196.68,1895.45 C3196.74,1930.13 3196.84,1979.17 3196.87,1993.53 C3196.87,1993.53 3291.32,1992.16 3291.32,1992.16 C3292.07,1966.29 3293.98,1900.55 3295.14,1860.69 C3296.18,1824.96 3297.69,1772.98 3298.16,1756.73 C3328.72,1755.64 3413.74,1752.71 3423.06,1753.18 C3429.02,1753.48 3443.31,1755.14 3449.77,1756.24 C3454.84,1757.17 3469.47,1760.33 3478.35,1761.52 C3492.34,1763.17 3525.96,1765.28 3542.13,1765.84 C3559.38,1766.23 3592.29,1767.08 3607.96,1767.55 C3646.92,1769.28 3682.28,1771.49 3686.90,1771.79" fill="none" stroke="rgb(33, 114, 29)" stroke-width="26.50" stroke-opacity="1.00" stroke-linejoin="miter"/>
<path d="M3685.53,1770.42 C3677.71,1762.61 3658.03,1742.80 3644.76,1728.84 C3633.71,1716.73 3611.63,1692.13 3600.61,1679.63 C3590.05,1667.29 3570.53,1644.07 3560.20,1631.09 C3550.01,1617.72 3535.72,1596.51 3524.70,1581.47 C3515.91,1569.80 3495.91,1544.45 3486.01,1532.45 C3476.01,1520.77 3449.83,1492.37 3445.65,1486.19 C3443.87,1483.53 3440.21,1477.09 3438.55,1473.27 C3434.91,1464.77 3433.34,1454.58 3431.54,1439.93 C3431.38,1438.59 3431.07,1436.16 3430.94,1435.06 C3462.04,1433.80 3527.27,1431.17 3561.39,1429.79 C3562.70,1429.74 3565.23,1429.63 3566.45,1429.59" fill="none" stroke="rgb(33, 114, 29)" stroke-width="26.50" stroke-opacity="1.00" stroke-linejoin="miter"/>
<path d="M3566.45,1429.59 C3545.64,1405.01 3512.16,1364.91 3503.90,1354.12 C3498.64,1346.97 3481.15,1319.50 3473.15,1307.74 C3463.68,1294.18 3445.37,1267.60 3436.51,1254.59 C3427.87,1241.55 3410.36,1214.71 3401.49,1200.90 C3392.61,1186.58 3375.83,1159.12 3367.93,1145.99 C3363.87,1138.93 3354.53,1122.21 3352.77,1118.62 C3350.35,1113.69 3345.66,1102.26 3342.10,1091.87 C3339.65,1083.93 3336.03,1072.17 3334.87,1068.35" fill="none" stroke="rgb(33, 114, 29)" stroke-width="26.50" stroke-opacity="1.00" stroke-linejoin="miter"/>
<path d="M3334.87,1070.84 C3334.87,1070.84 3456.82,1069.59 3456.82,1069.59" fill="none" stroke="rgb(33, 114, 29)" stroke-width="26.50" stroke-opacity="1.00" stroke-linejoin="miter"/>
<path d="M3454.33,1068.35 C3445.93,1057.99 3425.76,1032.98 3413.99,1018.33 C3409.27,1012.23 3398.37,997.81 3393.19,990.54 C3385.34,979.06 3347.76,914.40 3331.67,886.84 C3323.54,873.16 3307.36,845.31 3299.31,830.51 C3292.36,817.18 3273.28,780.50 3271.64,777.06 C3264.87,762.89 3254.99,730.18 3253.88,729.78 C3252.70,729.38 3249.93,730.79 3248.02,732.46" fill="none" stroke="rgb(33, 114, 29)" stroke-width="26.50" stroke-opacity="1.00" stroke-linejoin="miter"/>
</g>
</svg>
