<?xml version="1.0" encoding="UTF-8" standalone="no"?>
<!DOCTYPE svg PUBLIC "-//W3C//DTD SVG 1.1//EN" "http://www.w3.org/Graphics/SVG/1.1/DTD/svg11.dtd">
<svg width="850.39" height="595.28" viewBox="0.00 0.00 14173.00 9921.00" xmlns="http://www.w3.org/2000/svg" xmlns:xlink="http://www.w3.org/1999/xlink">
<g stroke-linecap="round" id="圖層_11">
<path d="M1408.03,767.64 C1409.44,767.46 1419.31,772.43 1428.25,777.83 C1445.07,788.50 1469.75,804.34 1488.41,817.45 C1503.63,828.49 1526.63,846.68 1536.86,855.82 C1547.89,866.07 1570.54,888.50 1580.97,900.14 C1586.32,906.31 1596.76,918.97 1601.34,925.12 C1610.32,937.48 1627.75,964.46 1636.03,978.18 C1643.78,991.53 1655.70,1013.15 1664.24,1032.00 C1667.21,1038.81 1672.71,1052.29 1675.29,1059.23 C1677.78,1066.52 1682.48,1082.12 1684.69,1090.43 C1687.18,1100.36 1693.02,1134.70 1695.16,1150.46 C1697.09,1167.04 1699.70,1200.62 1700.31,1217.37 C1700.47,1236.01 1699.10,1263.97 1697.86,1278.97 C1697.06,1286.50 1695.27,1301.57 1694.28,1309.13 C1693.08,1316.74 1690.15,1332.17 1688.43,1339.98 C1686.54,1347.86 1682.25,1363.80 1679.85,1371.87 C1677.00,1380.84 1671.91,1394.87 1669.12,1402.36 C1662.96,1417.59 1648.94,1448.87 1641.10,1464.85 C1633.58,1479.56 1619.29,1506.73 1612.54,1519.20 C1607.37,1528.32 1602.74,1535.99 1594.82,1548.01 C1589.43,1555.93 1581.66,1565.67 1576.00,1571.74 C1566.55,1581.60 1554.75,1593.89 1535.75,1612.16 C1519.87,1627.44 1495.82,1648.87 1487.11,1655.17 C1480.40,1659.94 1466.85,1668.91 1460.00,1673.13 C1446.36,1681.06 1422.96,1694.03 1405.39,1702.72 C1398.32,1706.03 1384.18,1712.43 1376.99,1715.39 C1362.71,1720.91 1336.13,1728.73 1316.84,1733.47 C1297.16,1738.01 1272.49,1742.79 1258.19,1745.46 C1243.27,1747.77 1210.20,1750.76 1193.18,1751.75 C1176.48,1752.43 1145.01,1753.65 1134.25,1753.58 C1131.30,1753.54 1116.85,1752.54 1108.83,1751.83 C1100.65,1751.00 1056.39,1741.98 1053.27,1740.57 C1052.38,1740.15 1051.84,1739.47 1052.11,1739.17 C1053.04,1738.29 1064.01,1737.57 1077.63,1737.49 C1106.76,1737.37 1135.51,1736.27 1145.49,1735.08 C1160.31,1733.09 1189.83,1726.95 1205.33,1723.24 C1213.34,1721.12 1229.37,1716.34 1237.39,1713.68 C1251.64,1708.61 1279.08,1696.63 1296.96,1687.76 C1303.89,1684.11 1317.28,1676.83 1323.74,1673.21 C1327.94,1670.77 1345.20,1659.62 1351.97,1654.89 C1360.37,1648.71 1386.06,1628.76 1398.01,1618.21 C1410.90,1606.35 1429.14,1585.87 1438.83,1574.88 C1444.14,1568.59 1454.16,1555.90 1458.87,1549.50 C1461.76,1545.49 1471.69,1529.98 1475.62,1523.32 C1483.01,1509.77 1497.92,1481.84 1505.46,1467.47 C1512.78,1453.06 1528.89,1420.72 1532.10,1411.77 C1533.82,1406.92 1548.51,1361.83 1550.96,1352.85 C1553.34,1343.56 1555.79,1330.19 1556.52,1323.37 C1556.82,1320.52 1560.70,1277.23 1562.34,1261.45 C1564.22,1244.62 1567.99,1206.70 1568.21,1196.65 C1568.34,1190.15 1566.25,1153.67 1565.18,1138.66 C1563.78,1122.60 1559.97,1089.95 1557.67,1074.66 C1555.23,1059.81 1548.67,1032.67 1544.97,1019.20 C1540.53,1003.63 1528.90,972.09 1522.93,956.45 C1515.99,939.08 1505.59,916.41 1499.19,903.85 C1491.86,890.00 1474.69,859.66 1469.01,850.56 C1465.83,845.64 1455.27,830.82 1450.68,824.52 C1446.41,818.52 1440.39,807.84 1433.47,799.59 C1428.06,793.34 1410.60,774.39 1408.64,771.54 C1407.01,769.09 1407.45,767.76 1408.03,767.64 Z" fill="none" stroke="rgb(255, 92, 0)" stroke-width="6.00" stroke-opacity="1.00" stroke-linejoin="miter"/>
</g>
<g stroke-linecap="round" id="圖層_9">
<path d="M1063.64,577.41 C1065.28,577.44 1068.89,578.93 1070.06,580.07 C1071.20,581.25 1072.70,584.86 1072.73,586.50 C1072.70,588.14 1071.20,591.75 1070.06,592.93 C1068.89,594.07 1065.28,595.56 1063.64,595.59 C1062.00,595.56 1058.39,594.07 1057.21,592.93 C1056.07,591.75 1054.57,588.14 1054.55,586.50 C1054.57,584.86 1056.07,581.25 1057.21,580.07 C1058.39,578.93 1062.00,577.44 1063.64,577.41 Z" fill="none" stroke="rgb(203, 203, 203)" stroke-width="20.00" stroke-opacity="1.00" stroke-linejoin="round"/>
<path d="M849.34,755.35 C849.72,755.36 849.72,756.12 849.34,756.13 C848.96,756.12 848.96,755.36 849.34,755.35 Z" fill="none" stroke="rgb(203, 203, 203)" stroke-width="20.00" stroke-opacity="1.00" stroke-linejoin="round"/>
<path d="M1303.93,1780.63 C1305.63,1780.65 1309.65,1781.73 1311.13,1782.56 C1312.59,1783.43 1315.53,1786.37 1316.40,1787.83 C1317.23,1789.31 1318.31,1793.33 1318.33,1795.03 C1318.31,1796.73 1317.23,1800.74 1316.40,1802.22 C1315.53,1803.68 1312.59,1806.62 1311.13,1807.49 C1309.65,1808.32 1305.63,1809.40 1303.93,1809.42 C1302.24,1809.40 1298.22,1808.32 1296.74,1807.49 C1295.28,1806.62 1292.34,1803.68 1291.47,1802.22 C1290.64,1800.74 1289.56,1796.73 1289.54,1795.03 C1289.56,1793.33 1290.64,1789.31 1291.47,1787.83 C1292.34,1786.37 1295.28,1783.43 1296.74,1782.56 C1298.22,1781.73 1302.24,1780.65 1303.93,1780.63 Z" fill="none" stroke="rgb(255, 255, 255)" stroke-width="20.00" stroke-opacity="1.00" stroke-linejoin="round"/>
<path d="M1710.64,1954.55 C1711.79,1954.57 1713.41,1956.19 1713.43,1957.33 C1713.41,1958.48 1711.79,1960.10 1710.64,1960.12 C1709.49,1960.10 1707.87,1958.48 1707.85,1957.33 C1707.87,1956.19 1709.49,1954.57 1710.64,1954.55 Z" fill="none" stroke="rgb(255, 255, 255)" stroke-width="20.00" stroke-opacity="1.00" stroke-linejoin="round"/>
<path d="M1336.65,764.34 C1340.52,764.33 1360.38,765.00 1368.33,765.36 C1376.33,765.94 1392.26,767.31 1400.19,768.09 C1419.25,770.51 1447.00,775.77 1462.62,779.31 C1478.11,783.26 1503.31,790.59 1523.25,797.80 C1530.69,800.72 1545.51,806.75 1552.88,809.87 C1573.93,819.44 1595.38,830.97 1609.19,838.95 C1622.85,847.34 1649.24,864.92 1661.77,874.53 C1674.20,884.48 1698.36,905.44 1709.88,916.29 C1713.17,919.46 1726.32,933.37 1731.71,939.21 C1736.99,945.24 1747.36,957.42 1752.47,963.58 C1765.57,980.27 1780.43,1001.92 1789.04,1015.40 C1797.30,1029.13 1811.00,1053.85 1819.27,1071.21 C1822.51,1078.51 1828.80,1093.22 1831.86,1100.63 C1840.00,1121.96 1845.53,1138.89 1851.56,1160.90 C1853.47,1168.70 1857.07,1184.29 1858.77,1192.09 C1862.35,1210.98 1865.90,1239.03 1867.34,1255.00 C1868.36,1270.96 1869.15,1297.22 1868.44,1318.44 C1867.96,1326.42 1866.78,1342.39 1866.09,1350.37 C1863.47,1373.36 1859.12,1397.35 1855.78,1412.96 C1852.01,1428.55 1843.43,1459.10 1838.15,1473.99 C1832.53,1488.90 1820.04,1518.36 1813.29,1532.68 C1811.28,1536.78 1802.11,1553.60 1798.23,1560.53 C1794.12,1567.41 1785.74,1581.05 1781.46,1587.80 C1769.63,1605.42 1753.64,1626.25 1743.48,1638.60 C1732.98,1650.70 1713.70,1671.37 1699.76,1684.60 C1693.83,1689.93 1681.79,1700.46 1675.69,1705.66 C1657.93,1719.99 1643.56,1730.48 1624.50,1743.01 C1617.68,1747.24 1603.98,1755.48 1597.10,1759.50 C1580.25,1768.74 1554.70,1780.78 1539.98,1787.08 C1525.13,1792.98 1500.43,1801.84 1480.06,1807.72 C1472.33,1809.73 1456.80,1813.55 1449.00,1815.35 C1426.36,1819.96 1402.25,1823.24 1386.40,1824.89 C1370.42,1826.12 1338.76,1827.40 1322.99,1826.98 C1307.11,1826.24 1275.27,1823.47 1259.60,1821.47 C1255.08,1820.84 1236.28,1817.31 1228.50,1815.76 C1220.70,1813.98 1205.17,1810.22 1197.43,1808.24 C1177.05,1802.44 1152.34,1793.68 1137.47,1787.84 C1122.74,1781.59 1097.17,1769.65 1080.30,1760.49 C1073.41,1756.49 1059.69,1748.30 1052.87,1744.11 C1033.78,1731.65 1019.39,1721.23 1001.60,1706.98 C995.49,1701.81 983.42,1691.33 977.48,1686.03 C963.50,1672.87 944.18,1652.29 933.65,1640.24 C923.46,1627.95 907.41,1607.20 895.53,1589.65 C891.24,1582.91 882.82,1569.32 878.69,1562.47 C867.32,1542.36 856.75,1520.44 850.28,1505.87 C844.17,1491.05 833.17,1461.34 828.69,1446.20 C824.49,1430.86 817.27,1399.72 814.33,1384.18 C813.54,1379.69 811.07,1360.72 810.14,1352.83 C809.42,1344.86 808.18,1328.91 807.67,1320.94 C806.88,1299.75 807.56,1273.52 808.51,1257.57 C809.89,1241.61 813.32,1213.58 816.81,1194.68 C818.47,1186.88 822.01,1171.29 823.89,1163.50 C829.82,1141.47 835.27,1124.54 843.30,1103.19 C846.33,1095.77 852.55,1081.04 855.75,1073.74 C863.94,1056.35 877.51,1031.58 885.70,1017.82 C894.24,1004.31 908.99,982.60 922.00,965.85 C927.07,959.67 937.38,947.44 942.62,941.39 C958.22,924.32 975.79,907.46 987.64,896.79 C999.83,886.38 1024.67,866.69 1037.68,857.74 C1050.96,848.98 1078.34,832.45 1092.19,824.83 C1096.22,822.68 1113.50,814.45 1120.71,811.12 C1128.06,807.96 1142.84,801.84 1150.26,798.88 C1170.17,791.56 1195.32,784.08 1210.78,780.05 C1226.38,776.41 1254.10,770.99 1273.14,768.47 C1281.07,767.63 1296.99,766.17 1304.98,765.55 C1312.93,765.14 1332.79,764.35 1336.65,764.34 Z" fill="none" stroke="rgb(246, 255, 0)" stroke-width="19.00" stroke-opacity="1.00" stroke-linejoin="round"/>
<path d="M1016.27,614.42 C1025.96,617.56 1057.37,630.87 1071.55,637.90 C1080.57,642.51 1111.84,661.03 1125.47,669.77 C1143.03,681.58 1164.06,697.08 1176.35,706.56 C1188.78,716.44 1213.59,737.06 1224.95,747.03 C1236.12,757.23 1258.58,778.22 1269.88,788.99 C1280.98,800.06 1302.54,822.11 1313.00,833.08 C1323.58,844.58 1344.64,867.87 1355.13,879.67 C1365.28,891.58 1385.51,915.74 1395.59,928.00 C1405.66,940.62 1425.62,966.03 1435.51,978.81 C1444.65,991.14 1462.95,1016.17 1472.11,1028.87 C1481.17,1041.77 1499.03,1067.62 1507.84,1080.55 C1516.26,1093.42 1533.08,1119.47 1541.47,1132.64 C1549.70,1145.94 1565.92,1172.53 1573.91,1185.84 C1581.70,1199.34 1597.17,1226.60 1604.86,1240.36 C1612.35,1254.17 1627.06,1281.79 1634.29,1295.59 C1641.43,1309.89 1655.55,1338.69 1662.52,1353.18 C1669.22,1367.64 1682.30,1396.51 1688.68,1410.93 C1694.86,1425.73 1706.95,1455.44 1712.87,1470.34 C1718.42,1485.05 1729.20,1514.26 1734.45,1529.67 C1739.43,1545.10 1748.97,1575.84 1753.54,1591.15 C1757.60,1606.05 1765.42,1636.61 1768.92,1652.19 C1772.16,1667.70 1777.76,1698.13 1780.08,1712.86 C1781.60,1723.45 1784.90,1759.67 1785.72,1775.08 C1786.19,1792.98 1785.88,1816.02 1783.66,1836.38 C1782.63,1844.23 1780.08,1859.42 1778.56,1866.69 C1776.04,1877.36 1773.04,1887.24 1769.63,1895.65 C1766.65,1902.94 1759.73,1916.57 1755.84,1922.71 C1751.19,1930.03 1743.26,1939.51 1736.62,1945.39 C1730.72,1950.58 1717.80,1959.23 1710.82,1962.63 C1704.16,1965.84 1690.29,1969.75 1683.02,1970.96 C1675.65,1972.18 1660.30,1973.15 1652.29,1972.91 C1645.29,1972.68 1630.58,1970.55 1623.49,1969.13 C1616.29,1967.53 1601.47,1963.60 1593.93,1961.29 C1586.32,1958.74 1571.18,1953.14 1564.51,1950.20 C1551.61,1944.33 1524.59,1930.16 1510.81,1922.28 C1491.08,1910.32 1471.12,1896.68 1458.62,1887.70 C1445.92,1878.26 1420.22,1858.14 1407.36,1847.58 C1394.50,1836.70 1372.26,1816.58 1361.07,1806.27 C1349.72,1795.36 1327.07,1773.12 1315.77,1761.80 C1304.81,1750.32 1283.55,1727.50 1273.26,1716.17 C1262.90,1704.38 1242.23,1680.46 1231.92,1668.33 C1221.79,1656.03 1201.86,1631.35 1192.07,1618.97 C1182.43,1606.33 1163.19,1580.73 1153.58,1567.76 C1144.16,1554.66 1125.55,1528.43 1116.37,1515.29 C1107.64,1502.27 1090.33,1476.05 1081.75,1462.85 C1073.28,1449.44 1056.59,1422.66 1048.37,1409.29 C1040.43,1395.98 1024.68,1368.98 1016.87,1355.28 C1009.24,1341.45 994.17,1313.73 986.73,1299.84 C979.61,1286.10 965.60,1258.53 958.70,1244.69 C951.76,1230.04 938.14,1200.71 931.46,1186.04 C925.13,1171.52 912.86,1142.82 906.93,1128.62 C901.08,1113.60 889.70,1083.49 884.16,1068.41 C879.04,1053.57 869.28,1024.36 864.63,1009.99 C860.05,994.56 851.58,963.25 847.54,947.71 C844.06,932.69 836.85,899.80 834.68,887.42 C832.11,871.38 828.06,840.18 826.59,825.24 C825.23,807.38 824.72,778.92 825.31,763.54 C825.73,756.03 826.92,741.58 827.70,734.64 C828.22,730.27 831.91,711.23 833.83,703.66 C836.10,695.25 840.13,683.08 843.06,675.75 C845.53,669.66 853.92,654.90 858.42,648.61 C862.91,642.38 872.81,631.44 878.61,626.87 C884.60,622.19 897.79,614.46 904.78,611.50 C911.52,608.67 925.73,605.27 933.19,604.31 C940.66,603.38 957.21,602.90 963.68,603.49 C971.69,604.29 984.49,606.33 993.13,608.20 C999.24,609.61 1014.43,613.83 1016.27,614.42 Z" fill="none" stroke="rgb(13, 255, 0)" stroke-width="8.30" stroke-opacity="1.00" stroke-linejoin="round"/>
<path d="M1018.44,1255.15 C1033.53,1258.00 1064.10,1263.97 1079.58,1267.09 C1095.22,1270.42 1126.40,1277.24 1141.94,1280.73 C1172.73,1288.27 1234.31,1303.99 1265.09,1312.17 C1295.71,1321.05 1356.46,1339.27 1386.58,1348.62 C1416.81,1358.75 1476.37,1379.34 1505.71,1389.82 C1535.37,1401.22 1593.42,1424.09 1622.48,1436.31 C1637.14,1442.74 1665.90,1455.57 1679.98,1461.98 C1693.86,1468.58 1721.91,1482.27 1736.08,1489.36 C1749.47,1496.38 1775.47,1510.25 1789.88,1518.44 C1803.79,1526.60 1834.95,1545.86 1842.39,1550.88 C1856.21,1560.49 1883.58,1581.03 1892.82,1589.16 C1898.77,1594.58 1910.66,1606.26 1914.45,1610.34 C1919.93,1616.44 1928.50,1628.08 1932.03,1634.25 C1933.55,1636.92 1936.63,1643.23 1937.73,1646.62 C1938.86,1650.19 1940.14,1656.97 1940.31,1660.26 C1940.48,1664.18 1939.69,1669.65 1938.31,1673.38 C1937.06,1676.67 1933.09,1683.29 1930.90,1685.78 C1927.05,1690.06 1913.31,1699.21 1906.66,1702.01 C1899.99,1704.79 1885.08,1709.52 1877.68,1711.22 C1874.07,1712.05 1855.82,1715.13 1847.94,1716.19 C1835.64,1717.60 1801.22,1719.40 1784.82,1719.67 C1769.84,1719.50 1738.10,1718.38 1722.16,1717.45 C1706.85,1716.22 1675.61,1713.36 1659.67,1711.73 C1644.75,1709.86 1614.34,1705.81 1598.86,1703.62 C1568.16,1698.74 1505.47,1687.39 1475.81,1681.37 C1460.63,1678.12 1430.46,1671.48 1415.46,1668.09 C1400.51,1664.52 1370.42,1657.18 1355.28,1653.41 C1325.64,1645.52 1266.24,1629.08 1236.50,1620.54 C1221.44,1615.95 1191.28,1606.63 1176.19,1601.88 C1161.25,1597.01 1131.24,1587.03 1116.17,1581.93 C1101.15,1576.69 1071.35,1566.10 1056.57,1560.74 C1041.77,1555.18 1012.30,1543.94 997.63,1538.25 C983.02,1532.37 953.57,1520.26 938.75,1514.05 C924.21,1507.74 895.27,1494.89 880.86,1488.35 C866.47,1481.52 838.23,1467.83 824.38,1460.98 C810.11,1453.47 781.96,1438.26 768.08,1430.55 C754.92,1422.92 727.93,1406.18 714.94,1397.63 C697.68,1385.78 677.69,1370.52 666.11,1360.64 C660.60,1355.76 649.31,1345.13 644.54,1339.83 C638.82,1333.43 629.78,1321.43 625.93,1315.05 C624.04,1311.88 620.80,1304.24 619.66,1300.41 C618.54,1296.51 617.48,1289.32 617.50,1285.61 C617.56,1282.09 619.52,1275.38 621.00,1272.37 C622.61,1269.16 626.94,1263.24 629.73,1260.45 C633.83,1256.41 646.91,1248.83 654.19,1245.80 C662.16,1242.52 673.02,1239.41 683.06,1237.19 C690.08,1235.82 705.10,1233.43 713.02,1232.41 C728.37,1230.75 758.00,1229.56 773.33,1229.37 C789.20,1229.49 820.55,1230.60 835.45,1231.53 C851.08,1232.78 882.90,1235.68 899.09,1237.33 C914.20,1239.22 944.51,1243.30 959.70,1245.48 C975.30,1247.95 1004.67,1252.78 1018.44,1255.15 Z" fill="none" stroke="rgb(252, 0, 255)" stroke-width="8.30" stroke-opacity="1.00" stroke-linejoin="round"/>
<path d="M1305.22,1788.75 C1306.60,1789.00 1309.41,1795.83 1309.45,1799.24 C1309.43,1800.20 1308.78,1803.96 1308.23,1804.42 C1307.31,1805.12 1306.32,1805.40 1305.25,1805.26 C1303.87,1805.02 1301.05,1798.18 1301.02,1794.77 C1301.03,1793.81 1301.69,1790.04 1302.24,1789.58 C1303.15,1788.88 1304.15,1788.60 1305.22,1788.75 Z" fill="none" stroke="rgb(255, 255, 255)" stroke-width="8.30" stroke-opacity="1.00" stroke-linejoin="round"/>
<path d="M1295.85,1794.52 C1297.83,1794.50 1304.43,1795.22 1308.39,1796.22 C1310.65,1796.81 1312.39,1798.32 1311.91,1799.22 C1310.91,1800.76 1297.70,1799.35 1293.73,1798.36 C1291.47,1797.77 1289.72,1796.25 1290.20,1795.35 C1290.45,1794.96 1294.59,1794.56 1295.85,1794.52 Z" fill="none" stroke="rgb(255, 255, 255)" stroke-width="8.30" stroke-opacity="1.00" stroke-linejoin="round"/>
<path d="M1712.51,1955.78 C1713.47,1956.34 1714.84,1959.95 1714.87,1961.99 C1714.85,1964.02 1713.49,1966.16 1712.53,1965.67 C1711.56,1965.11 1710.19,1961.50 1710.16,1959.45 C1710.18,1957.43 1711.54,1955.29 1712.51,1955.78 Z" fill="none" stroke="rgb(255, 255, 255)" stroke-width="8.30" stroke-opacity="1.00" stroke-linejoin="round"/>
<path d="M1714.24,1950.40 C1715.17,1950.42 1717.22,1951.26 1717.89,1951.91 C1718.54,1952.58 1719.39,1954.64 1719.41,1955.57 C1719.39,1956.50 1718.55,1958.56 1717.90,1959.23 C1717.24,1959.89 1715.19,1960.74 1714.26,1960.76 C1713.33,1960.74 1711.29,1959.90 1710.62,1959.25 C1709.97,1958.58 1709.12,1956.53 1709.10,1955.59 C1709.11,1954.66 1709.96,1952.60 1710.60,1951.93 C1711.27,1951.28 1713.31,1950.42 1714.24,1950.40 Z" fill="none" stroke="rgb(255, 255, 255)" stroke-width="8.30" stroke-opacity="1.00" stroke-linejoin="round"/>
<path d="M1704.29,1959.71 Q1704.01,1964.79 1704.29,1959.71" fill="none" stroke="rgb(255, 255, 255)" stroke-width="3.00" stroke-opacity="1.00" stroke-linejoin="round"/>
<path d="M1705.70,1965.36 Q1704.29,1959.43 1705.70,1965.36" fill="none" stroke="rgb(255, 255, 255)" stroke-width="7.60" stroke-opacity="1.00" stroke-linejoin="round"/>
<path d="M1703.30,1964.79 Q1702.59,1962.82 1703.02,1964.79" fill="none" stroke="rgb(255, 255, 255)" stroke-width="7.60" stroke-opacity="1.00" stroke-linejoin="round"/>
<path d="M1708.38,1966.20 Q1707.53,1966.49 1708.38,1966.20" fill="none" stroke="rgb(255, 255, 255)" stroke-width="7.60" stroke-opacity="1.00" stroke-linejoin="round"/>
<path d="M1718.54,1961.97 Q1719.81,1959.99 1718.54,1961.97" fill="none" stroke="rgb(255, 255, 255)" stroke-width="7.60" stroke-opacity="1.00" stroke-linejoin="round"/>
<path d="M1720.38,1959.15 Q1720.52,1959.01 1720.38,1959.15" fill="none" stroke="rgb(255, 255, 255)" stroke-width="7.60" stroke-opacity="1.00" stroke-linejoin="round"/>
</g>
<g stroke-linecap="round" id="圖層_10">
<path d="M1332.93,1096.17 C1338.37,1096.16 1356.21,1097.40 1364.05,1098.36 C1371.87,1099.43 1389.45,1102.79 1394.70,1104.18 C1399.96,1105.59 1416.88,1111.43 1424.20,1114.39 C1431.47,1117.46 1447.58,1125.28 1452.30,1128.00 C1457.01,1130.72 1471.85,1140.77 1478.16,1145.53 C1484.40,1150.40 1497.94,1162.14 1501.80,1165.99 C1505.65,1169.85 1517.39,1183.41 1522.26,1189.66 C1527.03,1195.98 1537.09,1210.85 1539.82,1215.57 C1542.55,1220.31 1550.39,1236.46 1553.48,1243.77 C1556.46,1251.11 1562.35,1268.09 1563.77,1273.37 C1565.19,1278.65 1568.61,1296.30 1569.71,1304.16 C1570.70,1312.03 1572.01,1329.97 1572.02,1335.43 C1572.03,1340.90 1570.78,1358.84 1569.83,1366.72 C1568.75,1374.58 1565.40,1392.25 1564.01,1397.53 C1562.61,1402.82 1556.78,1419.83 1553.83,1427.19 C1550.77,1434.50 1542.98,1450.70 1540.28,1455.44 C1537.56,1460.18 1527.56,1475.09 1522.81,1481.43 C1517.97,1487.71 1506.28,1501.32 1502.45,1505.20 C1498.61,1509.07 1485.11,1520.88 1478.89,1525.77 C1472.60,1530.57 1457.81,1540.68 1453.10,1543.43 C1448.40,1546.17 1432.32,1554.06 1425.06,1557.17 C1417.75,1560.17 1400.86,1566.09 1395.61,1567.52 C1390.36,1568.94 1372.80,1572.38 1364.98,1573.49 C1357.15,1574.49 1339.31,1575.82 1333.88,1575.83 C1328.44,1575.84 1310.60,1574.60 1302.76,1573.64 C1294.94,1572.56 1277.37,1569.20 1272.12,1567.81 C1266.87,1566.40 1249.95,1560.56 1242.64,1557.59 C1235.36,1554.52 1219.26,1546.70 1214.54,1543.99 C1209.83,1541.26 1195.00,1531.22 1188.70,1526.45 C1182.46,1521.59 1168.92,1509.85 1165.07,1506.00 C1161.22,1502.14 1149.48,1488.58 1144.62,1482.33 C1139.85,1476.01 1129.79,1461.15 1127.06,1456.43 C1124.34,1451.70 1116.49,1435.55 1113.41,1428.25 C1110.42,1420.90 1104.54,1403.93 1103.12,1398.65 C1101.71,1393.38 1098.29,1375.73 1097.18,1367.88 C1096.19,1360.01 1094.88,1342.08 1094.86,1336.61 C1094.86,1331.15 1096.10,1313.21 1097.05,1305.34 C1098.12,1297.48 1101.47,1279.81 1102.86,1274.53 C1104.26,1269.25 1110.08,1252.24 1113.03,1244.88 C1116.09,1237.57 1123.87,1221.37 1126.57,1216.63 C1129.29,1211.89 1139.28,1196.98 1144.02,1190.64 C1148.86,1184.36 1160.54,1170.74 1164.38,1166.86 C1168.22,1162.99 1181.71,1151.18 1187.93,1146.29 C1194.21,1141.49 1209.00,1131.37 1213.71,1128.62 C1218.41,1125.88 1234.48,1117.98 1241.75,1114.87 C1249.06,1111.87 1265.95,1105.94 1271.20,1104.51 C1276.45,1103.09 1294.00,1099.64 1301.82,1098.52 C1309.65,1097.52 1327.49,1096.19 1332.93,1096.17 Z" fill="none" stroke="rgb(255, 0, 0)" stroke-width="20.00" stroke-opacity="1.00" stroke-linejoin="round"/>
<path d="M1384.69,760.08 C1387.19,760.44 1408.74,762.75 1412.43,763.24 C1422.53,764.66 1433.96,766.92 1445.00,769.53 C1454.87,772.07 1490.67,782.31 1504.89,786.46 C1520.28,791.17 1539.95,799.72 1559.27,809.28 C1588.32,824.38 1635.12,850.11 1644.45,855.86 C1650.97,860.13 1661.26,867.33 1669.52,873.89 C1686.81,888.43 1724.52,926.59 1735.47,937.75 C1748.61,951.87 1763.78,971.27 1774.85,986.58 C1784.04,999.93 1799.16,1023.16 1810.09,1041.73 C1818.36,1056.46 1834.04,1085.92 1838.40,1096.27 C1840.46,1101.18 1852.51,1135.89 1856.77,1148.82 C1859.23,1156.42 1863.86,1172.25 1865.99,1180.44 C1868.71,1191.78 1874.63,1225.68 1876.74,1241.36 C1877.61,1249.08 1879.15,1264.40 1879.82,1272.00 C1880.65,1287.83 1881.02,1322.26 1880.56,1334.26 C1880.16,1341.64 1879.31,1353.33 1878.01,1364.18 C1875.90,1379.26 1868.24,1415.64 1866.18,1423.36 C1864.13,1431.05 1852.84,1465.53 1847.42,1480.22 C1842.96,1491.76 1829.28,1523.15 1822.42,1538.04 C1815.37,1552.56 1802.01,1576.92 1791.02,1593.51 C1782.43,1605.93 1763.14,1630.55 1753.58,1640.91 C1745.41,1649.35 1715.63,1676.58 1709.04,1682.34 C1697.27,1692.57 1673.10,1713.40 1660.91,1723.48 C1651.98,1730.66 1618.88,1754.93 1608.81,1761.53 C1599.71,1767.24 1591.89,1771.76 1582.07,1776.87 C1581.72,1777.05 1507.45,1811.32 1499.89,1814.24 C1492.12,1817.22 1479.69,1820.85 1470.77,1823.07 C1460.82,1825.26 1424.69,1831.78 1408.49,1834.27 C1400.64,1835.35 1385.12,1837.29 1377.59,1837.97 C1365.45,1838.95 1331.16,1838.31 1316.04,1837.89 C1296.28,1837.05 1272.28,1835.17 1256.12,1832.85 C1241.19,1830.51 1199.69,1824.12 1197.04,1823.59 C1189.59,1822.10 1175.34,1817.84 1169.34,1815.64 C1154.86,1810.15 1114.61,1794.93 1110.26,1793.05 C1102.55,1789.72 1092.83,1784.04 1084.29,1777.36 C1079.16,1773.35 1067.15,1766.28 1059.93,1762.80 C1052.87,1759.38 1039.51,1750.32 1031.00,1743.58 C1011.01,1727.02 1004.14,1719.07 1003.98,1718.41 C1003.90,1717.88 1004.72,1717.58 1005.78,1717.86 C1008.30,1718.59 1033.42,1731.83 1037.49,1733.67 C1040.14,1734.86 1058.61,1741.41 1060.72,1742.08 C1066.64,1743.94 1081.06,1746.11 1092.23,1747.21 C1108.01,1748.87 1138.91,1752.16 1153.68,1752.54 C1160.91,1752.60 1176.06,1752.28 1183.96,1751.88 C1195.41,1751.02 1265.18,1744.43 1275.45,1742.42 C1284.52,1740.57 1318.52,1730.90 1333.54,1726.48 C1354.19,1720.20 1380.72,1711.15 1394.74,1705.21 C1405.98,1700.14 1438.26,1683.04 1448.94,1676.67 C1462.39,1668.37 1483.51,1653.80 1499.20,1641.57 C1513.35,1630.08 1530.47,1613.59 1543.23,1599.39 C1553.55,1587.80 1582.71,1554.74 1585.00,1551.97 C1589.88,1545.98 1598.35,1534.35 1602.41,1527.48 C1606.35,1520.79 1620.00,1491.62 1627.73,1473.50 C1634.93,1455.97 1643.22,1432.83 1648.26,1413.74 C1652.21,1399.24 1661.83,1365.54 1664.19,1356.73 C1665.49,1351.63 1669.17,1334.40 1670.76,1326.57 C1673.70,1310.27 1676.55,1285.06 1677.80,1266.58 C1678.41,1251.80 1678.69,1223.51 1678.00,1204.56 C1677.13,1188.58 1674.21,1151.83 1672.69,1142.16 C1670.27,1128.35 1663.80,1092.52 1661.48,1084.05 C1659.99,1078.68 1653.12,1058.36 1651.42,1054.14 C1649.43,1049.27 1631.35,1006.97 1627.00,998.14 C1622.02,988.45 1604.72,958.89 1596.20,945.51 C1592.24,939.58 1583.00,926.91 1578.58,921.05 C1573.97,915.28 1562.81,901.71 1559.65,898.26 C1554.65,892.97 1544.77,882.63 1539.89,877.58 C1533.27,870.84 1525.01,863.40 1518.79,858.73 C1507.56,850.40 1480.39,825.70 1470.84,819.08 C1458.38,810.85 1428.33,791.06 1420.80,786.47 C1407.03,778.56 1382.04,764.05 1378.82,761.99 C1375.10,759.54 1374.34,758.49 1375.41,758.49 C1376.85,758.50 1381.25,759.59 1384.69,760.08 Z" fill="none" stroke="rgb(0, 98, 255)" stroke-width="8.00" stroke-opacity="1.00" stroke-linejoin="miter"/>
</g>
</svg>
