<?xml version="1.0" encoding="UTF-8" standalone="no"?>
<!DOCTYPE svg PUBLIC "-//W3C//DTD SVG 1.1//EN" "http://www.w3.org/Graphics/SVG/1.1/DTD/svg11.dtd">
<svg width="850.39" height="595.28" viewBox="0.00 0.00 14173.00 9921.00" xmlns="http://www.w3.org/2000/svg" xmlns:xlink="http://www.w3.org/1999/xlink">
<g stroke-linecap="round" id="聖誕主題_的複製">
<path d="M3248.89,453.63 L3226.98,527.55 L3128.43,534.39 L3192.76,591.88 L3176.34,693.17 L3244.78,638.42 L3320.06,693.17 L3299.53,604.20 L3366.60,546.71 L3281.74,538.50 L3248.89,453.63 Z" fill="none" stroke="rgb(240, 238, 122)" stroke-width="9.94" stroke-opacity="1.00" stroke-linejoin="miter"/>
<path d="M3247.52,715.53 C3244.16,727.03 3235.55,756.10 3230.29,773.66 C3222.58,796.77 3212.86,821.62 3206.65,835.41 C3202.05,845.20 3185.80,876.44 3178.16,890.73 C3170.96,903.54 3155.79,929.94 3147.83,943.54 C3143.55,950.44 3134.79,964.15 3130.31,970.96 C3118.67,987.71 3099.35,1012.77 3087.53,1027.06 C3067.83,1049.38 3047.45,1072.47 3046.76,1073.24 C3077.34,1072.44 3142.79,1070.71 3177.66,1069.80 C3180.35,1069.73 3184.26,1069.62 3185.46,1069.59 C3179.95,1079.33 3165.80,1104.12 3157.17,1119.16 C3148.37,1133.69 3131.47,1160.96 3123.38,1173.70 C3105.43,1201.05 3070.82,1253.64 3054.17,1278.88 C3045.33,1292.01 3027.06,1318.36 3017.63,1331.58 C3007.63,1345.01 2985.62,1373.11 2974.34,1387.22 C2955.16,1410.22 2933.88,1435.74 2931.78,1438.25" fill="none" stroke="rgb(33, 114, 29)" stroke-width="26.50" stroke-opacity="1.00" stroke-linejoin="miter"/>
<path d="M2937.26,1438.25 C2967.43,1437.09 3033.25,1434.56 3068.89,1433.19 C3071.75,1433.08 3077.11,1432.88 3079.61,1432.78 C3075.10,1442.19 3061.47,1470.67 3055.89,1481.28 C3051.37,1489.43 3041.33,1506.24 3035.81,1514.91 C3027.61,1527.18 3009.27,1552.79 2999.13,1566.12 C2979.58,1591.16 2939.36,1642.96 2918.69,1669.70 C2910.58,1680.31 2893.55,1702.66 2884.62,1714.40 C2879.88,1720.72 2870.84,1730.22 2864.25,1735.74 C2853.61,1744.62 2812.24,1771.65 2811.33,1772.24 C2834.27,1771.81 2888.84,1770.77 2920.47,1770.17 C2960.77,1769.41 3041.91,1767.87 3082.74,1767.10 C3114.91,1766.49 3170.57,1765.43 3194.06,1764.99 C3194.84,1764.97 3195.63,1764.96 3196.42,1764.94 C3196.47,1790.62 3196.60,1855.87 3196.68,1895.45 C3196.74,1930.13 3196.84,1979.17 3196.87,1993.53 C3196.87,1993.53 3291.32,1992.16 3291.32,1992.16 C3292.07,1966.29 3293.98,1900.55 3295.14,1860.69 C3296.18,1824.96 3297.69,1772.98 3298.16,1756.73 C3328.72,1755.64 3413.74,1752.71 3423.06,1753.18 C3429.02,1753.48 3443.31,1755.14 3449.77,1756.24 C3454.84,1757.17 3469.47,1760.33 3478.35,1761.52 C3492.34,1763.17 3525.96,1765.28 3542.13,1765.84 C3559.38,1766.23 3592.29,1767.08 3607.96,1767.55 C3646.92,1769.28 3682.28,1771.49 3686.90,1771.79" fill="none" stroke="rgb(33, 114, 29)" stroke-width="26.50" stroke-opacity="1.00" stroke-linejoin="miter"/>
<path d="M3685.53,1770.42 C3677.71,1762.61 3658.03,1742.80 3644.76,1728.84 C3633.71,1716.73 3611.63,1692.13 3600.61,1679.63 C3590.05,1667.29 3570.53,1644.07 3560.20,1631.09 C3550.01,1617.72 3535.72,1596.51 3524.70,1581.47 C3515.91,1569.80 3495.91,1544.45 3486.01,1532.45 C3476.01,1520.77 3449.83,1492.37 3445.65,1486.19 C3443.87,1483.53 3440.21,1477.09 3438.55,1473.27 C3434.91,1464.77 3433.34,1454.58 3431.54,1439.93 C3431.38,1438.59 3431.07,1436.16 3430.94,1435.06 C3462.04,1433.80 3527.27,1431.17 3561.39,1429.79 C3562.70,1429.74 3565.23,1429.63 3566.45,1429.59" fill="none" stroke="rgb(33, 114, 29)" stroke-width="26.50" stroke-opacity="1.00" stroke-linejoin="miter"/>
<path d="M3566.45,1429.59 C3545.64,1405.01 3512.16,1364.91 3503.90,1354.12 C3498.64,1346.97 3481.15,1319.50 3473.15,1307.74 C3463.68,1294.18 3445.37,1267.60 3436.51,1254.59 C3427.87,1241.55 3410.36,1214.71 3401.49,1200.90 C3392.61,1186.58 3375.83,1159.12 3367.93,1145.99 C3363.87,1138.93 3354.53,1122.21 3352.77,1118.62 C3350.35,1113.69 3345.66,1102.26 3342.10,1091.87 C3339.65,1083.93 3336.03,1072.17 3334.87,1068.35" fill="none" stroke="rgb(33, 114, 29)" stroke-width="26.50" stroke-opacity="1.00" stroke-linejoin="miter"/>
<path d="M3334.87,1070.84 C3334.87,1070.84 3456.82,1069.59 3456.82,1069.59" fill="none" stroke="rgb(33, 114, 29)" stroke-width="26.50" stroke-opacity="1.00" stroke-linejoin="miter"/>
<path d="M3454.33,1068.35 C3445.93,1057.99 3425.76,1032.98 3413.99,1018.33 C3409.27,1012.23 3398.37,997.81 3393.19,990.54 C3385.34,979.06 3347.76,914.40 3331.67,886.84 C3323.54,873.16 3307.36,845.31 3299.31,830.51 C3292.36,817.18 3273.28,780.50 3271.64,777.06 C3264.87,762.89 3254.99,730.18 3253.88,729.78 C3252.70,729.38 3249.93,730.79 3248.02,732.46" fill="none" stroke="rgb(33, 114, 29)" stroke-width="26.50" stroke-opacity="1.00" stroke-linejoin="miter"/>
<path d="M4979.22,862.20 C4979.66,860.14 4979.09,859.14 4978.15,860.51 C4977.76,861.12 4969.50,888.61 4965.66,898.63 C4961.48,909.46 4953.62,924.80 4948.30,932.45 C4943.39,939.46 4935.63,947.47 4927.81,954.80 C4914.29,966.92 4899.76,977.38 4894.88,979.54 C4888.54,982.30 4872.97,985.18 4863.19,986.05 C4850.63,986.91 4814.61,987.44 4801.55,987.58 C4811.50,998.10 4839.88,1027.81 4846.13,1033.42 C4854.14,1040.34 4864.24,1048.24 4868.01,1052.85 C4872.85,1058.85 4881.55,1075.38 4884.94,1083.80 C4888.59,1092.95 4895.69,1116.04 4898.24,1119.89 C4899.13,1121.16 4900.94,1122.84 4901.87,1123.24 C4902.81,1123.60 4904.74,1123.43 4905.73,1122.92 C4908.06,1121.61 4909.87,1118.83 4911.55,1114.83 C4914.43,1107.56 4923.39,1080.73 4927.89,1065.72 C4937.71,1030.23 4958.03,949.31 4967.43,911.13 C4973.10,887.65 4979.16,862.45 4979.22,862.20 Z" fill="none" stroke="rgb(54, 83, 47)" stroke-width="21.03" stroke-opacity="1.00" stroke-linejoin="miter"/>
<path d="M4824.87,1069.33 C4825.62,1069.13 4828.06,1071.42 4829.72,1073.86 C4832.47,1078.00 4843.07,1098.48 4848.49,1107.19 C4853.53,1115.24 4865.20,1131.01 4871.37,1137.74 C4875.40,1142.12 4894.45,1160.03 4896.01,1161.49 C4889.21,1185.10 4871.92,1245.18 4861.42,1281.64 C4851.77,1315.15 4832.26,1382.93 4822.39,1417.21 C4819.63,1426.80 4816.67,1437.08 4816.47,1437.76 C4816.34,1405.02 4816.62,1328.76 4816.58,1328.62 C4815.44,1325.03 4805.92,1313.02 4799.24,1305.70 C4792.47,1298.28 4782.34,1285.85 4779.15,1280.77 C4777.80,1278.62 4774.34,1271.55 4772.26,1269.49 C4769.87,1267.20 4763.61,1263.90 4759.68,1262.61 C4754.07,1260.81 4736.13,1257.95 4729.86,1256.95 C4735.15,1254.33 4752.55,1245.76 4756.52,1243.65 C4764.93,1239.14 4777.90,1230.50 4783.19,1225.43 C4787.88,1220.90 4796.28,1208.95 4799.77,1202.01 C4802.87,1195.79 4808.94,1180.40 4811.88,1172.99 C4815.34,1164.63 4821.06,1152.60 4824.24,1146.16 C4825.70,1142.94 4827.62,1134.62 4828.00,1129.90 C4828.60,1122.00 4827.37,1103.56 4825.74,1093.17 C4824.57,1085.94 4823.66,1078.92 4823.54,1075.86 C4823.43,1072.90 4824.11,1069.61 4824.87,1069.33 Z" fill="none" stroke="rgb(54, 83, 47)" stroke-width="21.03" stroke-opacity="1.00" stroke-linejoin="miter"/>
<path d="M5019.86,870.10 C5012.51,893.52 4994.22,951.78 4983.28,986.63 C4971.12,1025.37 4950.26,1091.81 4941.57,1119.51 C4939.95,1124.65 4937.62,1132.09 4936.90,1134.39 C4940.45,1130.15 4949.48,1119.39 4954.96,1112.86 C4961.12,1105.64 4973.55,1093.34 4980.13,1087.95 C4986.79,1082.51 4997.09,1076.02 5007.09,1070.68 C5013.88,1067.09 5028.01,1059.67 5035.35,1055.85 C5042.95,1051.93 5057.76,1044.19 5062.01,1040.69 C5062.45,1040.32 5064.90,1038.02 5065.41,1037.32 C5066.77,1035.36 5067.77,1032.35 5067.28,1030.89 C5067.04,1030.16 5064.22,1025.94 5064.01,1024.95 C5063.71,1023.40 5065.47,1020.11 5067.40,1018.02 C5070.22,1015.11 5084.00,1007.33 5096.22,1001.67 C5103.76,998.17 5113.81,993.52 5116.32,992.35" fill="none" stroke="rgb(54, 83, 47)" stroke-width="21.03" stroke-opacity="1.00" stroke-linejoin="miter"/>
<path d="M5115.87,991.21 C5110.04,992.12 5089.71,995.33 5086.33,995.66 C5081.93,996.07 5074.59,995.99 5071.01,995.48 C5067.33,994.90 5060.48,991.67 5058.07,988.86 C5056.24,986.66 5049.10,968.16 5046.51,961.34 C5040.39,944.90 5034.08,925.03 5027.89,901.54 C5024.14,886.88 5020.13,871.16 5019.86,870.10" fill="none" stroke="rgb(54, 83, 47)" stroke-width="21.03" stroke-opacity="1.00" stroke-linejoin="miter"/>
<path d="M5043.31,1087.10 C5039.40,1091.14 5029.42,1101.43 5023.35,1107.68 C5016.94,1113.94 5003.62,1126.03 4998.38,1130.21 C4984.49,1141.24 4931.49,1173.90 4919.06,1181.44 C4910.49,1205.39 4888.77,1266.13 4875.62,1302.91 C4863.29,1337.39 4844.36,1390.33 4837.75,1408.80 C4847.05,1397.41 4871.30,1368.16 4879.04,1360.84 C4880.89,1359.11 4924.44,1324.57 4926.60,1322.99 C4929.66,1320.75 4935.90,1316.68 4937.90,1315.60 C4942.87,1312.96 4949.45,1310.90 4953.68,1310.57 C4965.55,1309.70 4987.37,1307.00 4989.94,1306.67 C4987.81,1304.94 4981.00,1299.45 4979.19,1297.68 C4976.11,1294.62 4971.68,1287.75 4970.05,1283.76 C4968.74,1280.45 4966.61,1271.94 4965.92,1268.12 C4965.25,1264.24 4964.94,1256.95 4965.33,1253.34 C4965.63,1250.63 4966.98,1243.10 4967.96,1239.57 C4969.53,1234.18 4971.53,1228.49 4973.53,1225.27 C4977.03,1219.74 4984.28,1213.65 4995.66,1204.83 C4998.66,1202.48 5003.57,1198.63 5007.44,1195.44 C5010.47,1193.04 5017.18,1189.69 5021.05,1188.43 C5026.67,1186.63 5041.25,1183.63 5045.47,1182.76" fill="none" stroke="rgb(54, 83, 47)" stroke-width="21.03" stroke-opacity="1.00" stroke-linejoin="miter"/>
<path d="M5045.47,1182.76 C5043.66,1181.07 5038.46,1176.21 5036.65,1174.00 C5034.35,1171.16 5031.32,1165.08 5030.23,1161.79 C5028.18,1155.43 5026.19,1140.79 5026.82,1135.73 C5027.69,1129.22 5032.80,1114.56 5037.90,1102.30 C5039.42,1098.70 5041.98,1092.60 5043.03,1090.10" fill="none" stroke="rgb(54, 83, 47)" stroke-width="21.03" stroke-opacity="1.00" stroke-linejoin="miter"/>
<path d="M4725.34,1656.84 C4731.81,1656.85 4747.81,1658.92 4755.26,1660.70 C4762.40,1662.44 4775.73,1667.22 4783.23,1671.24 C4789.85,1674.82 4802.49,1683.51 4808.16,1688.39 C4813.81,1693.29 4823.59,1704.61 4827.93,1710.91 C4832.28,1717.25 4839.88,1731.37 4842.07,1737.44 C4844.66,1744.70 4848.18,1759.29 4849.17,1766.82 C4850.25,1775.29 4850.25,1788.22 4849.17,1796.70 C4848.18,1804.23 4844.66,1818.82 4842.07,1826.08 C4839.88,1832.15 4832.28,1846.27 4827.93,1852.61 C4823.59,1858.91 4813.81,1870.23 4808.16,1875.13 C4802.49,1880.01 4789.85,1888.70 4783.23,1892.28 C4775.73,1896.30 4762.40,1901.08 4755.26,1902.81 C4747.81,1904.60 4731.81,1906.67 4725.34,1906.68 C4718.88,1906.67 4702.87,1904.60 4695.42,1902.81 C4688.28,1901.08 4674.95,1896.30 4667.45,1892.28 C4660.83,1888.70 4648.19,1880.01 4642.52,1875.13 C4636.87,1870.23 4627.09,1858.91 4622.75,1852.61 C4618.40,1846.27 4610.80,1832.15 4608.61,1826.08 C4606.02,1818.82 4602.50,1804.23 4601.51,1796.70 C4600.43,1788.22 4600.43,1775.29 4601.51,1766.82 C4602.50,1759.29 4606.02,1744.70 4608.61,1737.44 C4610.80,1731.37 4618.40,1717.25 4622.75,1710.91 C4627.09,1704.61 4636.87,1693.29 4642.52,1688.39 C4648.19,1683.51 4660.83,1674.82 4667.45,1671.24 C4674.95,1667.22 4688.28,1662.44 4695.42,1660.70 C4702.87,1658.92 4718.88,1656.85 4725.34,1656.84 Z" fill="none" stroke="rgb(181, 41, 36)" stroke-width="21.82" stroke-opacity="1.00" stroke-linejoin="round"/>
<path d="M4982.84,1598.47 C4985.97,1598.49 4993.04,1600.10 4996.03,1601.64 C4999.25,1603.35 5003.80,1607.34 5005.64,1610.06 C5007.37,1612.69 5010.22,1621.29 5009.30,1621.94 C5008.68,1622.32 5005.45,1620.15 5004.31,1619.92 C5003.20,1619.72 5001.91,1621.67 5001.77,1623.30 C5001.62,1625.55 5002.30,1636.38 5001.55,1638.53 C5000.70,1640.76 4998.90,1642.20 4996.32,1642.81 C4992.96,1643.59 4985.16,1645.36 4982.84,1645.40 C4979.88,1645.42 4972.63,1643.77 4969.64,1642.23 C4966.35,1640.48 4961.92,1636.55 4959.94,1633.63 C4958.20,1630.98 4956.39,1624.71 4956.37,1621.94 C4956.39,1619.16 4958.20,1612.89 4959.94,1610.24 C4961.92,1607.32 4966.35,1603.39 4969.64,1601.64 C4972.63,1600.10 4979.70,1598.49 4982.84,1598.47 Z" fill="none" stroke="rgb(181, 41, 36)" stroke-width="219.10" stroke-opacity="1.00" stroke-linejoin="round"/>
<path d="M4674.50,1397.02 C4681.24,1397.04 4697.57,1399.68 4705.22,1401.99 C4712.78,1404.30 4726.77,1410.77 4733.08,1415.20 C4739.37,1419.65 4750.98,1430.51 4755.93,1436.56 C4761.43,1443.34 4768.17,1455.00 4771.28,1463.16 C4774.05,1470.47 4777.65,1485.95 4778.36,1493.63 C4779.04,1501.30 4777.65,1516.66 4775.87,1524.36 C4774.05,1532.14 4768.17,1547.61 4764.81,1553.45 C4761.43,1559.27 4750.98,1572.10 4745.15,1577.57 C4739.37,1582.96 4726.77,1591.83 4719.79,1595.08 C4712.78,1598.31 4697.57,1602.93 4689.86,1604.19 C4681.24,1605.57 4667.77,1605.57 4659.15,1604.19 C4651.43,1602.93 4636.22,1598.31 4629.22,1595.08 C4622.23,1591.83 4609.63,1582.96 4603.85,1577.57 C4598.03,1572.10 4587.57,1559.27 4584.19,1553.45 C4580.84,1547.61 4574.96,1532.14 4573.13,1524.36 C4571.36,1516.66 4569.97,1501.30 4570.64,1493.63 C4571.36,1485.95 4574.96,1470.47 4577.72,1463.16 C4580.84,1455.00 4587.57,1443.34 4593.08,1436.56 C4598.03,1430.51 4609.63,1419.65 4615.93,1415.20 C4622.23,1410.77 4636.22,1404.30 4643.78,1401.99 C4651.43,1399.68 4667.77,1397.04 4674.50,1397.02 Z" fill="none" stroke="rgb(181, 41, 36)" stroke-width="21.82" stroke-opacity="1.00" stroke-linejoin="round"/>
<path d="M4009.48,1095.90 C4008.32,1095.00 4007.68,1094.64 4007.56,1094.81 C4007.22,1095.47 4009.03,1098.19 4011.12,1100.15 C4022.33,1110.86 4033.28,1122.62 4038.80,1130.37 C4041.47,1134.15 4045.78,1142.13 4047.38,1145.87 C4050.64,1153.64 4052.88,1166.86 4053.56,1175.44 C4054.02,1181.35 4054.27,1196.99 4053.61,1202.66 C4053.18,1206.15 4051.83,1211.89 4050.45,1215.21 C4047.45,1222.23 4039.39,1234.20 4032.66,1243.01 C4024.59,1253.06 4000.54,1280.51 3991.95,1290.27 C4004.49,1288.14 4034.32,1282.94 4051.61,1279.88 C4056.10,1279.06 4073.06,1274.62 4079.52,1272.71 C4090.04,1269.50 4099.24,1267.70 4108.14,1267.52 C4116.61,1267.38 4134.68,1269.11 4143.63,1270.44 C4152.98,1272.03 4181.55,1278.16 4183.89,1278.62 C4188.61,1279.53 4196.04,1279.92 4198.51,1279.38 C4199.71,1279.10 4201.54,1278.17 4202.16,1277.53 C4203.35,1276.21 4203.36,1272.08 4202.18,1269.35 C4201.01,1266.72 4193.53,1257.63 4189.95,1253.65 C4183.57,1246.84 4159.84,1223.97 4146.50,1211.87 C4114.88,1184.36 4055.18,1134.06 4029.60,1112.58 C4021.19,1105.59 4009.70,1096.08 4009.48,1095.90 Z" fill="none" stroke="rgb(54, 83, 47)" stroke-width="21.03" stroke-opacity="1.00" stroke-linejoin="miter"/>
<path d="M4082.76,1312.57 C4083.31,1311.41 4092.95,1310.74 4101.78,1311.24 C4111.93,1311.90 4132.37,1312.90 4142.56,1312.98 C4152.64,1312.78 4171.86,1311.78 4181.15,1310.81 C4193.30,1309.36 4225.99,1303.26 4235.71,1301.42 C4252.44,1316.93 4293.72,1355.21 4318.27,1377.99 C4347.50,1405.09 4401.05,1454.75 4425.37,1477.30 C4452.62,1502.58 4498.73,1545.34 4517.58,1562.82 C4518.74,1563.89 4520.40,1565.43 4520.90,1565.89 C4495.81,1552.10 4437.80,1520.11 4404.88,1501.91 C4392.32,1494.83 4367.92,1480.60 4367.71,1480.49 C4364.26,1478.83 4350.78,1478.13 4340.97,1478.18 C4331.14,1478.44 4285.00,1480.20 4273.59,1479.57 C4268.95,1479.31 4259.50,1477.89 4258.41,1477.73 C4255.22,1477.27 4248.07,1477.78 4244.34,1478.72 C4237.80,1480.42 4224.21,1487.63 4215.23,1493.94 C4209.14,1498.24 4201.06,1503.95 4199.07,1505.35 C4200.56,1499.68 4205.82,1479.88 4206.62,1476.50 C4208.66,1467.77 4210.90,1451.36 4210.48,1443.63 C4210.25,1439.84 4209.06,1433.37 4208.00,1429.90 C4205.84,1422.95 4199.27,1410.50 4194.37,1403.57 C4191.68,1399.80 4179.23,1384.06 4174.29,1377.74 C4170.85,1373.22 4162.30,1360.67 4158.77,1355.23 C4156.95,1352.62 4151.54,1347.35 4148.03,1344.78 C4141.97,1340.38 4125.68,1332.05 4116.35,1328.27 C4106.55,1324.59 4088.26,1317.59 4084.83,1315.32 C4083.18,1314.19 4082.64,1312.93 4082.76,1312.57 Z" fill="none" stroke="rgb(54, 83, 47)" stroke-width="21.03" stroke-opacity="1.00" stroke-linejoin="miter"/>
<path d="M4044.53,1065.63 C4062.53,1082.60 4107.51,1125.03 4134.50,1150.48 C4163.59,1177.92 4212.93,1224.45 4233.18,1243.54 C4235.08,1245.33 4238.73,1248.78 4240.49,1250.44 C4238.83,1245.14 4234.61,1231.68 4232.05,1223.52 C4229.31,1214.39 4226.29,1197.34 4225.90,1189.01 C4225.56,1180.97 4226.96,1168.55 4229.14,1158.86 C4232.64,1143.85 4242.68,1101.88 4242.92,1096.76 C4243.02,1094.21 4242.13,1088.67 4240.39,1086.92 C4239.35,1085.94 4236.11,1085.23 4234.18,1085.51 C4232.75,1085.72 4228.01,1086.52 4226.50,1085.89 C4225.01,1085.21 4223.48,1082.42 4222.97,1079.97 C4222.23,1075.88 4225.16,1060.81 4229.15,1047.57 C4231.61,1039.40 4234.89,1028.52 4235.71,1025.80" fill="none" stroke="rgb(54, 83, 47)" stroke-width="21.03" stroke-opacity="1.00" stroke-linejoin="miter"/>
<path d="M4234.12,1025.80 C4226.13,1037.66 4212.70,1057.36 4207.21,1063.12 C4204.64,1065.80 4198.85,1070.73 4195.58,1072.69 C4192.14,1074.72 4184.98,1077.16 4181.54,1077.47 C4179.11,1077.67 4132.28,1075.75 4122.80,1075.15 C4104.28,1073.67 4049.79,1066.34 4044.53,1065.63" fill="none" stroke="rgb(54, 83, 47)" stroke-width="21.03" stroke-opacity="1.00" stroke-linejoin="miter"/>
<path d="M4278.73,1130.95 C4284.41,1155.96 4288.47,1176.19 4289.09,1191.60 C4289.36,1198.76 4288.54,1212.93 4287.92,1220.55 C4285.45,1244.68 4279.07,1289.47 4278.73,1291.86 C4295.37,1309.10 4335.99,1351.19 4359.97,1376.03 C4389.46,1406.57 4442.92,1461.96 4466.90,1486.80 C4476.14,1496.37 4492.78,1513.61 4500.18,1521.28 C4495.28,1508.63 4482.22,1474.45 4478.33,1462.70 C4475.29,1452.92 4472.30,1438.66 4472.27,1431.81 C4472.26,1425.00 4468.70,1375.15 4468.76,1369.27 C4468.81,1365.48 4469.44,1358.08 4469.91,1355.59 C4470.80,1351.12 4473.58,1343.85 4475.44,1341.12 C4476.00,1340.32 4502.96,1308.55 4511.34,1298.24 C4506.01,1299.41 4489.63,1303.05 4484.24,1303.74 C4475.57,1304.81 4459.55,1304.24 4451.78,1302.87 C4445.20,1301.68 4428.42,1297.31 4422.56,1295.08 C4415.51,1292.36 4401.54,1283.75 4397.05,1280.14 C4394.31,1277.90 4388.07,1272.51 4386.38,1270.64 C4384.09,1268.05 4380.60,1261.80 4379.68,1258.45 C4378.14,1252.57 4377.73,1236.80 4377.51,1229.73 C4377.32,1224.32 4376.75,1216.14 4376.74,1215.56 C4376.73,1212.26 4378.79,1204.67 4380.54,1200.86 C4383.42,1194.71 4392.99,1179.66 4396.63,1173.97" fill="none" stroke="rgb(54, 83, 47)" stroke-width="21.03" stroke-opacity="1.00" stroke-linejoin="miter"/>
<path d="M4396.63,1173.97 C4384.32,1176.82 4374.98,1178.80 4367.33,1178.86 C4360.11,1178.88 4344.33,1176.52 4337.28,1174.67 C4334.02,1173.80 4326.11,1171.23 4323.47,1169.99 C4319.93,1168.29 4312.59,1163.25 4309.28,1160.43 C4302.45,1154.56 4283.68,1134.43 4281.91,1132.54" fill="none" stroke="rgb(54, 83, 47)" stroke-width="21.03" stroke-opacity="1.00" stroke-linejoin="miter"/>
<path d="M4712.84,1752.47 C4715.97,1752.49 4723.04,1754.10 4726.03,1755.64 C4729.25,1757.35 4733.80,1761.34 4735.64,1764.06 C4737.37,1766.69 4740.22,1775.29 4739.30,1775.94 C4738.68,1776.32 4735.45,1774.15 4734.31,1773.92 C4733.20,1773.72 4731.91,1775.67 4731.77,1777.30 C4731.62,1779.55 4732.30,1790.38 4731.55,1792.53 C4730.70,1794.76 4728.90,1796.20 4726.32,1796.81 C4722.96,1797.59 4715.16,1799.36 4712.84,1799.40 C4709.88,1799.42 4702.63,1797.77 4699.64,1796.23 C4696.35,1794.48 4691.92,1790.55 4689.94,1787.63 C4688.20,1784.98 4686.39,1778.71 4686.37,1775.94 C4686.39,1773.16 4688.20,1766.89 4689.94,1764.24 C4691.92,1761.32 4696.35,1757.39 4699.64,1755.64 C4702.63,1754.10 4709.70,1752.49 4712.84,1752.47 Z" fill="none" stroke="rgb(181, 41, 36)" stroke-width="219.10" stroke-opacity="1.00" stroke-linejoin="round"/>
<path d="M4678.97,1485.28 C4681.38,1485.30 4686.18,1486.77 4687.54,1487.85 C4689.28,1489.29 4691.85,1493.46 4691.08,1494.05 C4690.24,1494.71 4688.86,1493.25 4687.89,1493.70 C4687.47,1493.89 4687.85,1499.31 4687.54,1500.26 C4687.23,1501.21 4685.69,1501.79 4683.61,1502.16 C4682.83,1502.27 4676.71,1502.85 4674.34,1502.16 C4673.83,1502.00 4671.07,1500.78 4670.41,1500.26 C4668.64,1498.76 4666.89,1495.90 4666.87,1494.05 C4666.89,1492.21 4668.64,1489.35 4670.41,1487.85 C4671.77,1486.77 4676.57,1485.30 4678.97,1485.28 Z" fill="none" stroke="rgb(181, 41, 36)" stroke-width="219.10" stroke-opacity="1.00" stroke-linejoin="round"/>
</g>
</svg>
