<svg xmlns="http://www.w3.org/2000/svg" viewBox="0 0 256 256">
  <defs>
    <radialGradient id="bg" cx="50%" cy="42%" r="82%">
      <stop offset="0%" stop-color="#f8f6f2"/>
      <stop offset="62%" stop-color="#f1eeea"/>
      <stop offset="100%" stop-color="#e8e4df"/>
    </radialGradient>
    <radialGradient id="floorGlow" cx="50%" cy="50%" r="50%">
      <stop offset="0%" stop-color="#111111" stop-opacity="0.18"/>
      <stop offset="42%" stop-color="#111111" stop-opacity="0.08"/>
      <stop offset="100%" stop-color="#111111" stop-opacity="0"/>
    </radialGradient>
    <radialGradient id="electronGlow" cx="50%" cy="50%" r="50%">
      <stop offset="0%" stop-color="#111111" stop-opacity="0.42"/>
      <stop offset="52%" stop-color="#111111" stop-opacity="0.16"/>
      <stop offset="100%" stop-color="#111111" stop-opacity="0"/>
    </radialGradient>
    <linearGradient id="moonFill" x1="86" y1="48" x2="206" y2="223" gradientUnits="userSpaceOnUse">
      <stop offset="0%" stop-color="#f6f6f6"/>
      <stop offset="50%" stop-color="#dadada"/>
      <stop offset="100%" stop-color="#b9b9b9"/>
    </linearGradient>
    <linearGradient id="grayMoonFill" x1="126" y1="52" x2="194" y2="224" gradientUnits="userSpaceOnUse">
      <stop offset="0%" stop-color="#4b4b4b"/>
      <stop offset="55%" stop-color="#323232"/>
      <stop offset="100%" stop-color="#1f1f1f"/>
    </linearGradient>
    <linearGradient id="polyLight" x1="74" y1="78" x2="150" y2="176" gradientUnits="userSpaceOnUse">
      <stop offset="0%" stop-color="#e7e2ff"/>
      <stop offset="42%" stop-color="#cbc4f1"/>
      <stop offset="100%" stop-color="#8e86b5"/>
    </linearGradient>
    <linearGradient id="polyMid" x1="116" y1="92" x2="160" y2="170" gradientUnits="userSpaceOnUse">
      <stop offset="0%" stop-color="#a197c9"/>
      <stop offset="100%" stop-color="#575069"/>
    </linearGradient>
    <linearGradient id="polyDark" x1="121" y1="112" x2="164" y2="187" gradientUnits="userSpaceOnUse">
      <stop offset="0%" stop-color="#786f9c"/>
      <stop offset="100%" stop-color="#3d384b"/>
    </linearGradient>
  </defs>

  <rect x="8" y="8" width="240" height="240" rx="38" fill="url(#bg)"/>
  <ellipse cx="128" cy="214" rx="22" ry="5" fill="url(#floorGlow)" opacity="0.5"/>

  <g fill="none" stroke="#242424" stroke-linecap="round" stroke-linejoin="round" transform="translate(-105 -88) scale(0.17)">
    <path d="M1016.27,614.42 C1025.96,617.56 1057.37,630.87 1071.55,637.90 C1080.57,642.51 1111.84,661.03 1125.47,669.77 C1143.03,681.58 1164.06,697.08 1176.35,706.56 C1188.78,716.44 1213.59,737.06 1224.95,747.03 C1236.12,757.23 1258.58,778.22 1269.88,788.99 C1280.98,800.06 1302.54,822.11 1313.00,833.08 C1323.58,844.58 1344.64,867.87 1355.13,879.67 C1365.28,891.58 1385.51,915.74 1395.59,928.00 C1405.66,940.62 1425.62,966.03 1435.51,978.81 C1444.65,991.14 1462.95,1016.17 1472.11,1028.87 C1481.17,1041.77 1499.03,1067.62 1507.84,1080.55 C1516.26,1093.42 1533.08,1119.47 1541.47,1132.64 C1549.70,1145.94 1565.92,1172.53 1573.91,1185.84 C1581.70,1199.34 1597.17,1226.60 1604.86,1240.36 C1612.35,1254.17 1627.06,1281.79 1634.29,1295.59 C1641.43,1309.89 1655.55,1338.69 1662.52,1353.18 C1669.22,1367.64 1682.30,1396.51 1688.68,1410.93 C1694.86,1425.73 1706.95,1455.44 1712.87,1470.34 C1718.42,1485.05 1729.20,1514.26 1734.45,1529.67 C1739.43,1545.10 1748.97,1575.84 1753.54,1591.15 C1757.60,1606.05 1765.42,1636.61 1768.92,1652.19 C1772.16,1667.70 1777.76,1698.13 1780.08,1712.86 C1781.60,1723.45 1784.90,1759.67 1785.72,1775.08 C1786.19,1792.98 1785.88,1816.02 1783.66,1836.38 C1782.63,1844.23 1780.08,1859.42 1778.56,1866.69 C1776.04,1877.36 1773.04,1887.24 1769.63,1895.65 C1766.65,1902.94 1759.73,1916.57 1755.84,1922.71 C1751.19,1930.03 1743.26,1939.51 1736.62,1945.39 C1730.72,1950.58 1717.80,1959.23 1710.82,1962.63 C1704.16,1965.84 1690.29,1969.75 1683.02,1970.96 C1675.65,1972.18 1660.30,1973.15 1652.29,1972.91 C1645.29,1972.68 1630.58,1970.55 1623.49,1969.13 C1616.29,1967.53 1601.47,1963.60 1593.93,1961.29 C1586.32,1958.74 1571.18,1953.14 1564.51,1950.20 C1551.61,1944.33 1524.59,1930.16 1510.81,1922.28 C1491.08,1910.32 1471.12,1896.68 1458.62,1887.70 C1445.92,1878.26 1420.22,1858.14 1407.36,1847.58 C1394.50,1836.70 1372.26,1816.58 1361.07,1806.27 C1349.72,1795.36 1327.07,1773.12 1315.77,1761.80 C1304.81,1750.32 1283.55,1727.50 1273.26,1716.17 C1262.90,1704.38 1242.23,1680.46 1231.92,1668.33 C1221.79,1656.03 1201.86,1631.35 1192.07,1618.97 C1182.43,1606.33 1163.19,1580.73 1153.58,1567.76 C1144.16,1554.66 1125.55,1528.43 1116.37,1515.29 C1107.64,1502.27 1090.33,1476.05 1081.75,1462.85 C1073.28,1449.44 1056.59,1422.66 1048.37,1409.29 C1040.43,1395.98 1024.68,1368.98 1016.87,1355.28 C1009.24,1341.45 994.17,1313.73 986.73,1299.84 C979.61,1286.10 965.60,1258.53 958.70,1244.69 C951.76,1230.04 938.14,1200.71 931.46,1186.04 C925.13,1171.52 912.86,1142.82 906.93,1128.62 C901.08,1113.60 889.70,1083.49 884.16,1068.41 C879.04,1053.57 869.28,1024.36 864.63,1009.99 C860.05,994.56 851.58,963.25 847.54,947.71 C844.06,932.69 836.85,899.80 834.68,887.42 C832.11,871.38 828.06,840.18 826.59,825.24 C825.23,807.38 824.72,778.92 825.31,763.54 C825.73,756.03 826.92,741.58 827.70,734.64 C828.22,730.27 831.91,711.23 833.83,703.66 C836.10,695.25 840.13,683.08 843.06,675.75 C845.53,669.66 853.92,654.90 858.42,648.61 C862.91,642.38 872.81,631.44 878.61,626.87 C884.60,622.19 897.79,614.46 904.78,611.50 C911.52,608.67 925.73,605.27 933.19,604.31 C940.66,603.38 957.21,602.90 963.68,603.49 C971.69,604.29 984.49,606.33 993.13,608.20 C999.24,609.61 1014.43,613.83 1016.27,614.42 Z" stroke-width="2.2" opacity="0.95"/>
    <path d="M1018.44,1255.15 C1033.53,1258.00 1064.10,1263.97 1079.58,1267.09 C1095.22,1270.42 1126.40,1277.24 1141.94,1280.73 C1172.73,1288.27 1234.31,1303.99 1265.09,1312.17 C1295.71,1321.05 1356.46,1339.27 1386.58,1348.62 C1416.81,1358.75 1476.37,1379.34 1505.71,1389.82 C1535.37,1401.22 1593.42,1424.09 1622.48,1436.31 C1637.14,1442.74 1665.90,1455.57 1679.98,1461.98 C1693.86,1468.58 1721.91,1482.27 1736.08,1489.36 C1749.47,1496.38 1775.47,1510.25 1789.88,1518.44 C1803.79,1526.60 1834.95,1545.86 1842.39,1550.88 C1856.21,1560.49 1883.58,1581.03 1892.82,1589.16 C1898.77,1594.58 1910.66,1606.26 1914.45,1610.34 C1919.93,1616.44 1928.50,1628.08 1932.03,1634.25 C1933.55,1636.92 1936.63,1643.23 1937.73,1646.62 C1938.86,1650.19 1940.14,1656.97 1940.31,1660.26 C1940.48,1664.18 1939.69,1669.65 1938.31,1673.38 C1937.06,1676.67 1933.09,1683.29 1930.90,1685.78 C1927.05,1690.06 1913.31,1699.21 1906.66,1702.01 C1899.99,1704.79 1885.08,1709.52 1877.68,1711.22 C1874.07,1712.05 1855.82,1715.13 1847.94,1716.19 C1835.64,1717.60 1801.22,1719.40 1784.82,1719.67 C1769.84,1719.50 1738.10,1718.38 1722.16,1717.45 C1706.85,1716.22 1675.61,1713.36 1659.67,1711.73 C1644.75,1709.86 1614.34,1705.81 1598.86,1703.62 C1568.16,1698.74 1505.47,1687.39 1475.81,1681.37 C1460.63,1678.12 1430.46,1671.48 1415.46,1668.09 C1400.51,1664.52 1370.42,1657.18 1355.28,1653.41 C1325.64,1645.52 1266.24,1629.08 1236.50,1620.54 C1221.44,1615.95 1191.28,1606.63 1176.19,1601.88 C1161.25,1597.01 1131.24,1587.03 1116.17,1581.93 C1101.15,1576.69 1071.35,1566.10 1056.57,1560.74 C1041.77,1555.18 1012.30,1543.94 997.63,1538.25 C983.02,1532.37 953.57,1520.26 938.75,1514.05 C924.21,1507.74 895.27,1494.89 880.86,1488.35 C866.47,1481.52 838.23,1467.83 824.38,1460.98 C810.11,1453.47 781.96,1438.26 768.08,1430.55 C754.92,1422.92 727.93,1406.18 714.94,1397.63 C697.68,1385.78 677.69,1370.52 666.11,1360.64 C660.60,1355.76 649.31,1345.13 644.54,1339.83 C638.82,1333.43 629.78,1321.43 625.93,1315.05 C624.04,1311.88 620.80,1304.24 619.66,1300.41 C618.54,1296.51 617.48,1289.32 617.50,1285.61 C617.56,1282.09 619.52,1275.38 621.00,1272.37 C622.61,1269.16 626.94,1263.24 629.73,1260.45 C633.83,1256.41 646.91,1248.83 654.19,1245.80 C662.16,1242.52 673.02,1239.41 683.06,1237.19 C690.08,1235.82 705.10,1233.43 713.02,1232.41 C728.37,1230.75 758.00,1229.56 773.33,1229.37 C789.20,1229.49 820.55,1230.60 835.45,1231.53 C851.08,1232.78 882.90,1235.68 899.09,1237.33 C914.20,1239.22 944.51,1243.30 959.70,1245.48 C975.30,1247.95 1004.67,1252.78 1018.44,1255.15 Z" stroke-width="2.2" opacity="0.94"/>
  </g>

  <path
    d="M1336.65,764.34 C1340.52,764.33 1360.38,765.00 1368.33,765.36 C1376.33,765.94 1392.26,767.31 1400.19,768.09 C1419.25,770.51 1447.00,775.77 1462.62,779.31 C1478.11,783.26 1503.31,790.59 1523.25,797.80 C1530.69,800.72 1545.51,806.75 1552.88,809.87 C1573.93,819.44 1595.38,830.97 1609.19,838.95 C1622.85,847.34 1649.24,864.92 1661.77,874.53 C1674.20,884.48 1698.36,905.44 1709.88,916.29 C1713.17,919.46 1726.32,933.37 1731.71,939.21 C1736.99,945.24 1747.36,957.42 1752.47,963.58 C1765.57,980.27 1780.43,1001.92 1789.04,1015.40 C1797.30,1029.13 1811.00,1053.85 1819.27,1071.21 C1822.51,1078.51 1828.80,1093.22 1831.86,1100.63 C1840.00,1121.96 1845.53,1138.89 1851.56,1160.90 C1853.47,1168.70 1857.07,1184.29 1858.77,1192.09 C1862.35,1210.98 1865.90,1239.03 1867.34,1255.00 C1868.36,1270.96 1869.15,1297.22 1868.44,1318.44 C1867.96,1326.42 1866.78,1342.39 1866.09,1350.37 C1863.47,1373.36 1859.12,1397.35 1855.78,1412.96 C1852.01,1428.55 1843.43,1459.10 1838.15,1473.99 C1832.53,1488.90 1820.04,1518.36 1813.29,1532.68 C1811.28,1536.78 1802.11,1553.60 1798.23,1560.53 C1794.12,1567.41 1785.74,1581.05 1781.46,1587.80 C1769.63,1605.42 1753.64,1626.25 1743.48,1638.60 C1732.98,1650.70 1713.70,1671.37 1699.76,1684.60 C1693.83,1689.93 1681.79,1700.46 1675.69,1705.66 C1657.93,1719.99 1643.56,1730.48 1624.50,1743.01 C1617.68,1747.24 1603.98,1755.48 1597.10,1759.50 C1580.25,1768.74 1554.70,1780.78 1539.98,1787.08 C1525.13,1792.98 1500.43,1801.84 1480.06,1807.72 C1472.33,1809.73 1456.80,1813.55 1449.00,1815.35 C1426.36,1819.96 1402.25,1823.24 1386.40,1824.89 C1370.42,1826.12 1338.76,1827.40 1322.99,1826.98 C1307.11,1826.24 1275.27,1823.47 1259.60,1821.47 C1255.08,1820.84 1236.28,1817.31 1228.50,1815.76 C1220.70,1813.98 1205.17,1810.22 1197.43,1808.24 C1177.05,1802.44 1152.34,1793.68 1137.47,1787.84 C1122.74,1781.59 1097.17,1769.65 1080.30,1760.49 C1073.41,1756.49 1059.69,1748.30 1052.87,1744.11 C1033.78,1731.65 1019.39,1721.23 1001.60,1706.98 C995.49,1701.81 983.42,1691.33 977.48,1686.03 C963.50,1672.87 944.18,1652.29 933.65,1640.24 C923.46,1627.95 907.41,1607.20 895.53,1589.65 C891.24,1582.91 882.82,1569.32 878.69,1562.47 C867.32,1542.36 856.75,1520.44 850.28,1505.87 C844.17,1491.05 833.17,1461.34 828.69,1446.20 C824.49,1430.86 817.27,1399.72 814.33,1384.18 C813.54,1379.69 811.07,1360.72 810.14,1352.83 C809.42,1344.86 808.18,1328.91 807.67,1320.94 C806.88,1299.75 807.56,1273.52 808.51,1257.57 C809.89,1241.61 813.32,1213.58 816.81,1194.68 C818.47,1186.88 822.01,1171.29 823.89,1163.50 C829.82,1141.47 835.27,1124.54 843.30,1103.19 C846.33,1095.77 852.55,1081.04 855.75,1073.74 C863.94,1056.35 877.51,1031.58 885.70,1017.82 C894.24,1004.31 908.99,982.60 922.00,965.85 C927.07,959.67 937.38,947.44 942.62,941.39 C958.22,924.32 975.79,907.46 987.64,896.79 C999.83,886.38 1024.67,866.69 1037.68,857.74 C1050.96,848.98 1078.34,832.45 1092.19,824.83 C1096.22,822.68 1113.50,814.45 1120.71,811.12 C1128.06,807.96 1142.84,801.84 1150.26,798.88 C1170.17,791.56 1195.32,784.08 1210.78,780.05 C1226.38,776.41 1254.10,770.99 1273.14,768.47 C1281.07,767.63 1296.99,766.17 1304.98,765.55 C1312.93,765.14 1332.79,764.35 1336.65,764.34 Z"
    fill="none"
    stroke="#424242"
    stroke-width="3.2"
    stroke-linecap="round"
    stroke-linejoin="round"
    opacity="0.88"
    transform="translate(-105 -88) scale(0.17)"
  />

  <g transform="translate(19 2)">
    <path d="M99 82 146 102 150 147 116 182 73 168 59 120Z" fill="url(#polyMid)"/>
    <path d="M59 120 99 82 115 119 83 171Z" fill="url(#polyLight)"/>
    <path d="M115 119 146 102 150 147Z" fill="#8c85af"/>
    <path d="M115 119 150 147 116 182Z" fill="url(#polyDark)"/>
    <path d="M115 119 116 182 83 171Z" fill="#a7a0cd"/>
    <path d="M99 82 146 102 115 119Z" fill="#e2ddff"/>
    <path d="M59 120 115 119 83 171Z" fill="#beb7e5"/>
    <path d="M91 190 124 187 150 166 115 119Z" fill="#211f29" opacity="0.52"/>
  </g>

  <path
    d="M1408.03,767.64 C1409.44,767.46 1419.31,772.43 1428.25,777.83 C1445.07,788.50 1469.75,804.34 1488.41,817.45 C1503.63,828.49 1526.63,846.68 1536.86,855.82 C1547.89,866.07 1570.54,888.50 1580.97,900.14 C1586.32,906.31 1596.76,918.97 1601.34,925.12 C1610.32,937.48 1627.75,964.46 1636.03,978.18 C1643.78,991.53 1655.70,1013.15 1664.24,1032.00 C1667.21,1038.81 1672.71,1052.29 1675.29,1059.23 C1677.78,1066.52 1682.48,1082.12 1684.69,1090.43 C1687.18,1100.36 1693.02,1134.70 1695.16,1150.46 C1697.09,1167.04 1699.70,1200.62 1700.31,1217.37 C1700.47,1236.01 1699.10,1263.97 1697.86,1278.97 C1697.06,1286.50 1695.27,1301.57 1694.28,1309.13 C1693.08,1316.74 1690.15,1332.17 1688.43,1339.98 C1686.54,1347.86 1682.25,1363.80 1679.85,1371.87 C1677.00,1380.84 1671.91,1394.87 1669.12,1402.36 C1662.96,1417.59 1648.94,1448.87 1641.10,1464.85 C1633.58,1479.56 1619.29,1506.73 1612.54,1519.20 C1607.37,1528.32 1602.74,1535.99 1594.82,1548.01 C1589.43,1555.93 1581.66,1565.67 1576.00,1571.74 C1566.55,1581.60 1554.75,1593.89 1535.75,1612.16 C1519.87,1627.44 1495.82,1648.87 1487.11,1655.17 C1480.40,1659.94 1466.85,1668.91 1460.00,1673.13 C1446.36,1681.06 1422.96,1694.03 1405.39,1702.72 C1398.32,1706.03 1384.18,1712.43 1376.99,1715.39 C1362.71,1720.91 1336.13,1728.73 1316.84,1733.47 C1297.16,1738.01 1272.49,1742.79 1258.19,1745.46 C1243.27,1747.77 1210.20,1750.76 1193.18,1751.75 C1176.48,1752.43 1145.01,1753.65 1134.25,1753.58 C1131.30,1753.54 1116.85,1752.54 1108.83,1751.83 C1100.65,1751.00 1056.39,1741.98 1053.27,1740.57 C1052.38,1740.15 1051.84,1739.47 1052.11,1739.17 C1053.04,1738.29 1064.01,1737.57 1077.63,1737.49 C1106.76,1737.37 1135.51,1736.27 1145.49,1735.08 C1160.31,1733.09 1189.83,1726.95 1205.33,1723.24 C1213.34,1721.12 1229.37,1716.34 1237.39,1713.68 C1251.64,1708.61 1279.08,1696.63 1296.96,1687.76 C1303.89,1684.11 1317.28,1676.83 1323.74,1673.21 C1327.94,1670.77 1345.20,1659.62 1351.97,1654.89 C1360.37,1648.71 1386.06,1628.76 1398.01,1618.21 C1410.90,1606.35 1429.14,1585.87 1438.83,1574.88 C1444.14,1568.59 1454.16,1555.90 1458.87,1549.50 C1461.76,1545.49 1471.69,1529.98 1475.62,1523.32 C1483.01,1509.77 1497.92,1481.84 1505.46,1467.47 C1512.78,1453.06 1528.89,1420.72 1532.10,1411.77 C1533.82,1406.92 1548.51,1361.83 1550.96,1352.85 C1553.34,1343.56 1555.79,1330.19 1556.52,1323.37 C1556.82,1320.52 1560.70,1277.23 1562.34,1261.45 C1564.22,1244.62 1567.99,1206.70 1568.21,1196.65 C1568.34,1190.15 1566.25,1153.67 1565.18,1138.66 C1563.78,1122.60 1559.97,1089.95 1557.67,1074.66 C1555.23,1059.81 1548.67,1032.67 1544.97,1019.20 C1540.53,1003.63 1528.90,972.09 1522.93,956.45 C1515.99,939.08 1505.59,916.41 1499.19,903.85 C1491.86,890.00 1474.69,859.66 1469.01,850.56 C1465.83,845.64 1455.27,830.82 1450.68,824.52 C1446.41,818.52 1440.39,807.84 1433.47,799.59 C1428.06,793.34 1410.60,774.39 1408.64,771.54 C1407.01,769.09 1407.45,767.76 1408.03,767.64 Z"
    fill="url(#grayMoonFill)"
    opacity="0.7"
    transform="translate(-105 -88) scale(0.17)"
  />

  <path
    d="M1396.69,758.08 C1399.19,758.44 1420.74,760.75 1424.43,761.24 C1434.53,762.66 1445.96,764.92 1457.00,767.53 C1466.87,770.07 1502.67,780.31 1516.89,784.46 C1532.28,789.17 1551.95,797.72 1571.27,807.28 C1600.32,822.38 1647.12,848.11 1656.45,853.86 C1662.97,858.13 1673.26,865.33 1681.52,871.89 C1698.81,886.43 1736.52,924.59 1747.47,935.75 C1760.61,949.87 1775.78,969.27 1786.85,984.58 C1796.04,997.93 1811.16,1021.16 1822.09,1039.73 C1830.36,1054.46 1846.04,1083.92 1850.40,1094.27 C1852.46,1099.18 1864.51,1133.89 1868.77,1146.82 C1871.23,1154.42 1875.86,1170.25 1877.99,1178.44 C1880.71,1189.78 1886.63,1223.68 1888.74,1239.36 C1889.61,1247.08 1891.15,1262.40 1891.82,1270.00 C1892.65,1285.83 1893.02,1320.26 1892.56,1332.26 C1892.16,1339.64 1891.31,1351.33 1890.01,1362.18 C1887.90,1377.26 1880.24,1413.64 1878.18,1421.36 C1876.13,1429.05 1864.84,1463.53 1859.42,1478.22 C1854.96,1489.76 1841.28,1521.15 1834.42,1536.04 C1827.37,1550.56 1814.01,1574.92 1803.02,1591.51 C1794.43,1603.93 1775.14,1628.55 1765.58,1638.91 C1757.41,1647.35 1727.63,1674.58 1721.04,1680.34 C1709.27,1690.57 1685.10,1711.40 1672.91,1721.48 C1663.98,1728.66 1630.88,1752.93 1620.81,1759.53 C1611.85,1765.15 1603.79,1769.82 1594.16,1774.88 C1585.03,1779.38 1552.76,1793.69 1538.89,1799.82 C1524.79,1805.96 1500.10,1816.50 1483.30,1822.69 C1474.16,1825.83 1461.90,1829.41 1454.14,1831.16 C1443.64,1833.51 1408.84,1838.60 1394.06,1840.35 C1377.08,1841.79 1342.91,1843.38 1331.09,1843.41 C1316.21,1843.22 1292.72,1842.40 1270.21,1840.74 C1262.27,1839.96 1249.57,1838.36 1239.03,1836.47 C1231.33,1834.91 1216.22,1831.32 1209.00,1829.35 C1197.49,1826.07 1165.29,1813.30 1151.23,1807.31 C1137.22,1801.10 1109.14,1788.10 1096.27,1781.49 C1086.74,1776.35 1058.49,1759.79 1047.18,1753.21 C1042.07,1750.18 1023.37,1736.16 1019.11,1732.75 C1015.30,1729.68 1010.99,1725.42 1010.86,1724.61 C1010.81,1723.49 1015.57,1724.52 1021.89,1726.90 C1034.45,1731.52 1041.56,1733.68 1052.52,1736.22 C1062.98,1738.80 1071.10,1740.36 1079.16,1740.83 C1112.22,1742.25 1179.95,1745.73 1203.14,1746.02 C1211.64,1746.05 1228.21,1745.98 1235.63,1745.76 C1244.89,1745.37 1258.11,1743.91 1265.98,1742.25 C1277.60,1739.65 1308.78,1730.99 1324.50,1726.50 C1338.72,1722.37 1368.78,1713.61 1383.39,1708.36 C1388.17,1706.59 1405.54,1699.07 1412.68,1695.63 C1426.37,1688.55 1450.58,1675.19 1465.39,1665.62 C1479.58,1656.10 1498.37,1641.24 1512.52,1629.07 C1521.36,1621.22 1546.29,1596.96 1556.82,1585.45 C1566.66,1574.08 1588.67,1545.51 1595.30,1535.91 C1604.10,1522.66 1621.33,1494.67 1628.33,1481.48 C1633.82,1470.74 1647.63,1440.27 1653.50,1425.52 C1659.00,1410.61 1668.22,1383.87 1672.56,1368.74 C1676.41,1354.48 1683.44,1320.98 1685.44,1309.02 C1687.33,1296.71 1689.80,1264.58 1690.41,1249.80 C1690.77,1231.28 1690.00,1202.56 1689.13,1186.58 C1688.57,1178.59 1687.42,1163.71 1686.82,1156.82 C1685.29,1143.64 1679.71,1111.95 1677.03,1097.20 C1675.13,1088.07 1671.99,1076.68 1668.59,1066.29 C1663.85,1052.74 1651.69,1024.68 1645.67,1010.48 C1641.54,1001.29 1635.66,989.64 1632.15,983.17 C1624.88,970.41 1606.05,940.14 1599.43,930.76 C1595.00,924.91 1585.97,913.28 1581.36,907.51 C1574.05,898.81 1546.06,869.56 1542.09,865.97 C1537.01,861.40 1524.27,851.89 1518.03,846.73 C1512.15,841.67 1497.88,828.70 1494.74,826.07 C1488.55,820.91 1457.94,800.59 1445.05,792.16 C1435.66,786.09 1395.96,763.27 1390.82,759.99 C1387.10,757.54 1386.34,756.49 1387.41,756.49 C1388.85,756.50 1393.25,757.59 1396.69,758.08 Z"
    fill="url(#moonFill)"
    opacity="0.98"
    transform="translate(-105 -88) scale(0.17)"
  />

  <g opacity="0.94">
    <circle cx="125" cy="32" r="9.8" fill="url(#electronGlow)"/>
    <circle cx="194" cy="159" r="8.4" fill="url(#electronGlow)"/>
    <circle cx="175" cy="214" r="7.6" fill="url(#electronGlow)"/>
    <circle cx="147" cy="202" r="10.8" fill="url(#electronGlow)"/>
    <circle cx="82" cy="65" r="4.2" fill="url(#electronGlow)"/>
  </g>

  <g fill="#101010">
    <circle cx="125" cy="32" r="3.8"/>
    <circle cx="194" cy="159" r="3.3"/>
    <circle cx="175" cy="214" r="3.1"/>
    <circle cx="147" cy="202" r="4.7"/>
    <circle cx="82" cy="65" r="1.2" opacity="0.95"/>
  </g>
</svg>
